<svg width="72" height="72" viewBox="0 0 72 72" fill="none" xmlns="http://www.w3.org/2000/svg">
<g clip-path="url(#clip0_10679_237627)">
<path d="M39.7724 32.351C41.9579 31.026 44.0695 29.4221 46.448 29.3888C46.9032 29.4174 47.219 29.483 47.5347 29.5485C47.8875 29.7535 48.1746 30.2742 48.4249 30.6556C50.0454 33.9564 51.5265 37.2942 53.1101 40.4556C53.5081 41.3947 53.8691 42.1942 54.1277 43.1702C54.5709 44.8433 54.4565 46.6641 53.6736 48.2144C53.0956 49.4119 52.3043 50.3676 51.3367 51.2208C49.5409 52.8902 47.0765 54.2891 44.6242 54.0436C42.1063 54.1138 39.8791 52.4657 38.1358 50.3911" stroke="var(--spot-icon-lineart)" stroke-width="1.5" stroke-miterlimit="10" stroke-linecap="round" stroke-linejoin="round"/>
<path d="M41.6113 21.27C41.6733 23.1933 43.1663 24.8867 45.061 25.28C46.9557 25.6732 48.9362 24.7009 49.8586 23.1137C50.7809 21.5265 50.6082 19.1849 49.3654 17.8729C48.1225 16.5609 45.6702 16.3153 44.1818 17.4557C44.1448 17.3163 41.5864 19.4862 41.6113 21.27Z" stroke="var(--spot-icon-lineart)" stroke-width="1.5" stroke-miterlimit="10" stroke-linecap="round" stroke-linejoin="round"/>
<path d="M44.9798 29.4792C45.074 28.7082 47.5836 28.0433 48.9695 27.0793C50.6342 26.0415 52.3645 24.6878 54.4272 24.589C54.706 24.5151 55.0218 24.5806 55.1982 24.6831C55.5509 24.8881 55.6248 25.1669 55.875 25.5483C56.9581 27.947 58.1807 30.3089 59.2638 32.7077C59.5879 33.3678 59.912 34.028 60.0967 34.7251C60.4292 35.9799 60.3064 37.2061 59.7284 38.4037C59.3554 39.2485 58.8061 39.9909 58.0803 40.6308C57.0102 41.6603 55.5874 42.4849 54.1193 42.5754" stroke="var(--spot-icon-lineart)" stroke-width="1.5" stroke-miterlimit="10" stroke-linecap="round" stroke-linejoin="round"/>
<path d="M39.0873 30.8914C39.8499 30.3909 40.5387 29.6116 41.0511 28.7298C42.3834 26.4371 42.026 23.3985 40.3197 21.4632C38.4739 19.5649 35.2505 19.2252 33.2783 20.7922C33.2783 20.7922 29.7153 23.6758 29.8225 26.3331C29.8308 26.9278 30.0155 27.6249 30.3026 28.1456" stroke="var(--spot-icon-lineart)" stroke-width="1.5" stroke-miterlimit="10" stroke-linecap="round" stroke-linejoin="round"/>
<path d="M45.1676 46.7608C45.3725 46.4081 38.9273 33.344 35.871 27.4394C29.2037 30.9963 22.2862 34.1718 15.6189 37.7287C15.6189 37.7287 21.3754 51.572 25.3708 57.0786C26.1704 56.7176 45.0651 46.9371 45.1676 46.7608Z" fill="var(--spot-icon-accent)"/>
<path d="M22.8534 38.3255L32.4771 33.5378L33.4864 35.6577L29.8042 37.5285L34.3417 46.7709L31.9798 47.9934L27.4423 38.751L23.8996 40.5849L22.8534 38.3255Z" fill="var(--spot-icon-lineart)"/>
<path d="M58.0069 22.8949C61.6605 21.4793 65.0186 18.9484 67.7367 15.6917C68.0811 15.3021 68.4339 15.5071 68.721 16.0278C69.2954 17.0693 69.4884 18.361 69.1523 19.3453C68.9187 20.1532 68.5088 20.8587 68.025 21.2853C67.5042 21.5724 67.4101 22.3434 67.4553 23.0775C67.64 23.7746 67.6567 24.9638 66.726 25.9564C65.8322 27.0884 65.1268 26.6785 64.1139 26.7976C63.8351 26.8715 63.6301 27.2242 63.6015 27.6794C63.6468 28.4135 63.5526 29.1845 63.2451 29.7135C62.8352 30.419 61.9987 30.6406 61.1538 30.2676" stroke="var(--spot-icon-lineart)" stroke-width="1.5" stroke-miterlimit="10" stroke-linecap="round" stroke-linejoin="round"/>
<path d="M14.3903 43.5517C11.2086 46.1852 7.66581 48.019 3.68813 48.7744C3.26986 48.8852 3.10183 49.3773 3.24958 49.935C3.68449 51.0135 4.39826 52.018 5.24311 52.391C5.94855 52.801 6.68259 52.7557 7.20334 52.4685C7.72409 52.1814 8.21623 52.3494 8.67976 52.9726C9.14329 53.5959 9.9226 54.2846 11.1774 53.9522C12.4691 53.7592 12.5263 52.8488 13.3176 51.8931C13.5595 51.6798 13.9778 51.569 14.228 51.9504C14.6915 52.5736 15.2206 52.881 15.8152 52.8727C16.5493 52.8275 17.275 52.1876 17.4717 51.2402" stroke="var(--spot-icon-lineart)" stroke-width="1.5" stroke-miterlimit="10" stroke-linecap="round" stroke-linejoin="round"/>
</g>
<defs>
<clipPath id="clip0_10679_237627">
<rect width="72" height="72" fill="white"/>
</clipPath>
</defs>
</svg>
