<svg width="72" height="72" viewBox="0 0 72 72" fill="none" xmlns="http://www.w3.org/2000/svg">
<path d="M69.0239 53.1136L28.4204 63.2987C27.8859 63.4109 27.4002 62.9573 27.2746 62.3587L19.572 25.645C19.4325 24.9799 19.7624 24.4246 20.2434 24.3237L60.7934 14.1498C61.3279 14.0376 61.8136 14.4912 61.9392 15.0898L69.6418 51.8035C69.8348 52.4574 69.5049 53.0127 69.0239 53.1136Z" fill="var(--spot-icon-accent)"/>
<path d="M27.5876 61.971C25.9055 54.542 21.6363 31.5448 19.9542 24.1158" stroke="var(--spot-icon-lineart)" stroke-width="1.5" stroke-miterlimit="10" stroke-linecap="round" stroke-linejoin="round"/>
<path d="M64.7196 31.5037C63.2496 23.9086 61.7083 16.2676 60.3175 9.93266C60.0487 8.65154 58.7766 7.8849 57.5348 8.14543C46.7846 10.4616 17.9395 16.5742 7.18932 18.8903C5.88837 19.1633 5.10301 20.4224 5.37179 21.7035C6.90531 28.1301 12.302 51.4988 14.0339 62.9906C14.2435 64.2842 15.4809 65.1797 16.841 64.8943L44.6519 59.1812" stroke="var(--spot-icon-lineart)" stroke-width="1.5" stroke-miterlimit="10" stroke-linecap="round" stroke-linejoin="round"/>
<path d="M52.1215 13.2579C52.1106 13.272 52.1003 13.2865 52.0904 13.3013L52.0152 13.4146C51.99 13.4439 51.9713 13.4557 51.9627 13.4604C51.9526 13.4659 51.943 13.4687 51.9306 13.4695C51.9009 13.4716 51.8416 13.4612 51.7768 13.4141C51.7115 13.3666 51.6854 13.3145 51.6795 13.291C51.6773 13.282 51.6776 13.2772 51.6784 13.2731C51.6792 13.2693 51.6832 13.2504 51.7075 13.2165C51.7129 13.209 51.7182 13.2014 51.7233 13.1937L51.8003 13.0777C51.8351 13.0355 51.8628 13.0163 51.8784 13.0075C51.8956 12.9978 51.9098 12.9942 51.9232 12.993C51.9538 12.9904 52.0099 13.0002 52.0702 13.045C52.1314 13.0905 52.155 13.1408 52.1601 13.1643C52.162 13.1735 52.1619 13.1801 52.1601 13.1878C52.1583 13.1953 52.1515 13.2191 52.1215 13.2579Z" fill="black" stroke="var(--spot-icon-lineart)" stroke-width="1.5" stroke-linecap="round" stroke-linejoin="round"/>
<path d="M54.2888 12.5709C54.3423 12.5623 54.3697 12.5681 54.3785 12.5704C54.3872 12.5728 54.3924 12.5758 54.398 12.5805C54.4128 12.5932 54.4444 12.634 54.455 12.7084C54.4655 12.7825 54.4476 12.8377 54.4312 12.8633C54.4243 12.8741 54.4165 12.8822 54.4051 12.8895C54.394 12.8967 54.3673 12.911 54.3138 12.9195C54.2603 12.928 54.2329 12.9223 54.2242 12.9199C54.2155 12.9175 54.2103 12.9146 54.2047 12.9098C54.1898 12.8972 54.1583 12.8563 54.1477 12.7819C54.1371 12.7079 54.1551 12.6527 54.1714 12.6271C54.1784 12.6163 54.1862 12.6082 54.1975 12.6009C54.2087 12.5936 54.2354 12.5793 54.2888 12.5709Z" fill="black" stroke="var(--spot-icon-lineart)" stroke-width="1.5" stroke-linecap="round" stroke-linejoin="round"/>
<path d="M55.525 12.3972L55.5494 12.5137L56.264 12.2669M55.525 12.3972L56.2659 12.2806C56.2651 12.2758 56.2645 12.2712 56.264 12.2669M55.525 12.3972C55.3398 11.2202 57.1974 10.952 57.3826 12.1291L55.525 12.3972ZM56.264 12.2669L56.264 12.267L56.2641 12.2672L56.2641 12.2675L56.2642 12.2677L56.2642 12.2679L56.2643 12.2682L56.2643 12.2684L56.2644 12.2687L56.2644 12.2689L56.2645 12.2692L56.2645 12.2694L56.2646 12.2697L56.2646 12.2699L56.2647 12.2701L56.2647 12.2704L56.2648 12.2706L56.2648 12.2708L56.2649 12.2711L56.2649 12.2713L56.265 12.2716L56.265 12.2718L56.2651 12.272L56.2651 12.2722L56.2652 12.2725L56.2652 12.2727L56.2653 12.2729L56.2653 12.2732L56.2654 12.2734L56.2654 12.2736L56.2655 12.2739L56.2655 12.2741L56.2656 12.2743L56.2656 12.2745L56.2656 12.2747L56.2657 12.275L56.2657 12.2752L56.2658 12.2754L56.2658 12.2756L56.2659 12.2759L56.2659 12.2761L56.266 12.2763L56.266 12.2765L56.2661 12.2767L56.2661 12.2769L56.2661 12.2772L56.2662 12.2774L56.2662 12.2776L56.2663 12.2778L56.2663 12.278L56.2664 12.2782L56.2664 12.2784L56.2665 12.2786L56.2665 12.2789L56.2666 12.2791L56.2666 12.2793L56.2666 12.2795L56.2667 12.2797L56.2667 12.2799L56.2668 12.2801L56.2668 12.2803L56.2669 12.2805L56.2669 12.2807L56.2669 12.2809L56.267 12.2811L56.267 12.2813L56.2671 12.2815L56.2671 12.2817L56.2672 12.2819L56.2672 12.2821L56.2672 12.2823L56.2673 12.2825L56.2673 12.2827L56.2674 12.2829L56.2674 12.2831L56.2674 12.2833L56.2675 12.2835L56.2675 12.2837L56.2676 12.2839L56.2676 12.2841L56.2677 12.2843L56.2677 12.2845L56.2677 12.2847L56.2678 12.2849L56.2678 12.2851L56.2679 12.2853L56.2679 12.2855L56.2679 12.2857L56.268 12.2859L56.268 12.286L56.2681 12.2862L56.2681 12.2864L56.2681 12.2866L56.2682 12.2868L56.2682 12.287L56.2683 12.2872L56.2683 12.2874L56.2683 12.2876L56.2684 12.2877L56.2684 12.2879L56.2684 12.2881L56.2685 12.2883L56.2685 12.2885L56.2686 12.2887L56.2686 12.2889L56.2686 12.289L56.2687 12.2892L56.2687 12.2894L56.2688 12.2896L56.2688 12.2898L56.2688 12.2899L56.2689 12.2901L56.2689 12.2903L56.2689 12.2905L56.269 12.2907L56.269 12.2909L56.2691 12.291L56.2691 12.2912L56.2691 12.2914L56.2692 12.2916L56.2692 12.2918L56.2692 12.2919L56.2693 12.2921L56.2693 12.2923L56.2694 12.2925L56.2694 12.2926L56.2694 12.2928L56.2695 12.293L56.2695 12.2932L56.2695 12.2934L56.2696 12.2935L56.2696 12.2937L56.2697 12.2939L56.2697 12.2941L56.2697 12.2942L56.2698 12.2944L56.2698 12.2946L56.2698 12.2948L56.2699 12.2949L56.2699 12.2951L56.27 12.2953L56.27 12.2955L56.27 12.2956L56.2701 12.2958L56.2701 12.296L56.2701 12.2961L56.2702 12.2963L56.2702 12.2965L56.2702 12.2967L56.2703 12.2968L56.2703 12.297L56.2704 12.2972L56.2704 12.2974L56.2704 12.2975L56.2705 12.2977L56.2705 12.2979L56.2705 12.298L56.2706 12.2982L56.2706 12.2984L56.2706 12.2986L56.2707 12.2987L56.2707 12.2989L56.2707 12.2991L56.2708 12.2992L56.2708 12.2994L56.2709 12.2996L56.2709 12.2998L56.2709 12.2999L56.271 12.3001L56.271 12.3003L56.271 12.3004L56.2711 12.3006L56.2711 12.3008L56.2711 12.3009L56.2712 12.3011L56.2712 12.3013L56.2712 12.3015L56.2713 12.3016L56.2713 12.3018L56.2714 12.302L56.2714 12.3021L56.2714 12.3023L56.2715 12.3025L56.2715 12.3027L56.2715 12.3028L56.2716 12.303L56.2716 12.3032L56.2716 12.3033L56.2717 12.3035L56.2717 12.3037L56.2717 12.3038L56.2718 12.304L56.2718 12.3042L56.2719 12.3044L56.2719 12.3045L56.2719 12.3047L56.272 12.3049L56.272 12.305L56.272 12.3052L56.2721 12.3054L56.2721 12.3056L56.2721 12.3057L56.2722 12.3059L56.2722 12.3061L56.2723 12.3063L56.2723 12.3064L56.2723 12.3066L56.2724 12.3068L56.2724 12.3069L56.2724 12.3071L56.2725 12.3073L56.2725 12.3075L56.2725 12.3076L56.2726 12.3078L56.2726 12.308L56.2727 12.3082L56.2727 12.3083L56.2727 12.3085L56.2728 12.3087L56.2728 12.3089L56.2728 12.309L56.2729 12.3092L56.2729 12.3094L56.2729 12.3096L56.273 12.3097L56.273 12.3099L56.2731 12.3101L56.2731 12.3103L56.2731 12.3105L56.2732 12.3106L56.2732 12.3108L56.2732 12.311L56.2733 12.3112L56.2733 12.3113L56.2734 12.3115L56.2734 12.3117L56.2734 12.3119L56.2735 12.3121L56.2735 12.3122L56.2735 12.3124L56.2736 12.3126L56.2736 12.3128L56.2737 12.313L56.2737 12.3132L56.2737 12.3133L56.2738 12.3135L56.2738 12.3137L56.2739 12.3139L56.2739 12.3141L56.2739 12.3143L56.274 12.3144L56.274 12.3146L56.274 12.3148L56.2741 12.315L56.2741 12.3152L56.2742 12.3154L56.2742 12.3156L56.2742 12.3157L56.2743 12.3159L56.2743 12.3161L56.2744 12.3163L56.2744 12.3165L56.2744 12.3167L56.2745 12.3169L56.2745 12.3171L56.2746 12.3173L56.2746 12.3174L56.2746 12.3176L56.2747 12.3178L56.2747 12.318L56.2748 12.3182L56.2748 12.3184L56.2748 12.3186L56.2749 12.3188L56.2749 12.319L56.275 12.3192L56.275 12.3194L56.2751 12.3196L56.2751 12.3198L56.2751 12.32L56.2752 12.3202L56.2752 12.3204L56.2753 12.3206L56.2753 12.3208L56.2753 12.321L56.2754 12.3212L56.2754 12.3214L56.2755 12.3216L56.2755 12.3218L56.2756 12.322L56.2756 12.3222L56.2756 12.3224L56.2757 12.3226L56.2757 12.3228L56.2758 12.323L56.2758 12.3232L56.2759 12.3234L56.2759 12.3236L56.2759 12.3238L56.276 12.3241L56.276 12.3243L56.2761 12.3245L56.2761 12.3247L56.2762 12.3249L56.2762 12.3251L56.2763 12.3253L56.2763 12.3255L56.2763 12.3258L56.2764 12.326L56.2764 12.3262L56.2765 12.3264L56.2765 12.3266L56.2766 12.3268L56.2766 12.3271L56.2767 12.3273L56.2767 12.3275L56.2768 12.3277L56.2768 12.3279L56.2769 12.3282L56.2769 12.3284L56.2769 12.3286L56.277 12.3288L56.277 12.3291L56.2771 12.3293L56.2771 12.3295L56.2772 12.3297L56.2772 12.33L56.2773 12.3302L56.2773 12.3304L56.2774 12.3307L56.2774 12.3309L56.2775 12.3311L56.2775 12.3314L56.2776 12.3316L56.2776 12.3318L56.2777 12.3321L56.2777 12.3323L56.2778 12.3325L56.2778 12.3328L56.2779 12.333L56.2779 12.3333L56.278 12.3335L56.278 12.3337L56.2781 12.334L56.2781 12.3342L56.2782 12.3345L56.2782 12.3347L56.2783 12.335L56.2783 12.3352L56.2784 12.3355L56.2784 12.3357L56.2785 12.336L56.2785 12.3362L56.2786 12.3365L56.2786 12.3367L56.2787 12.337L56.2788 12.3372L56.2788 12.3375L56.2789 12.3377L56.2789 12.338L56.279 12.3383L56.279 12.3385L56.2791 12.3388L56.2791 12.339L56.2792 12.3393L56.2792 12.3396L56.2793 12.3398L56.2794 12.3401L56.2794 12.3404L56.2795 12.3406L56.2795 12.3409L56.2796 12.3412L56.2796 12.3414L56.2797 12.3417L56.2797 12.342L56.2798 12.3422L56.2799 12.3425L56.2799 12.3428L56.28 12.3431L56.28 12.3434L56.2801 12.3436L56.2802 12.3439L56.2802 12.3442L56.2803 12.3445L56.2803 12.3448L56.2804 12.345L56.2805 12.3453L56.2805 12.3456L56.2806 12.3459L56.2806 12.3462L56.2807 12.3465L56.2808 12.3468L56.2808 12.3471L56.2809 12.3473L56.2809 12.3476L56.281 12.3479L56.2811 12.3482L56.2811 12.3485L56.2812 12.3488L56.2812 12.3491L56.2813 12.3494L56.2814 12.3497L56.2814 12.35L56.2815 12.3503L56.2816 12.3506L56.2816 12.3509L56.2817 12.3513L56.2818 12.3516L56.2818 12.3519L56.2819 12.3522L56.282 12.3525L56.282 12.3528L56.2821 12.3531L56.2822 12.3534L56.2822 12.3538L56.2823 12.3541L56.2824 12.3544L56.2824 12.3547L56.2825 12.355L56.2826 12.3554L56.2826 12.3557L56.2827 12.356L56.2828 12.3563L56.2828 12.3567L56.2829 12.357L56.283 12.3573L56.283 12.3577L56.2831 12.358L56.2832 12.3583L56.2833 12.3587L56.2833 12.359L56.2834 12.3594L56.2835 12.3597C56.2862 12.3728 56.2886 12.3859 56.2906 12.3991C56.2935 12.4176 56.2972 12.429 56.2996 12.4351C56.3019 12.4411 56.3037 12.4437 56.3041 12.4443C56.3045 12.4449 56.3049 12.4454 56.3058 12.4462C56.3067 12.4471 56.3092 12.4492 56.314 12.452C56.3374 12.4656 56.3996 12.4851 56.4876 12.471C56.575 12.4569 56.6259 12.4197 56.6433 12.3997C56.65 12.392 56.6525 12.3866 56.6542 12.3806C56.6557 12.3753 56.6604 12.3563 56.6558 12.3177L56.6486 12.2831C56.646 12.2707 56.6437 12.2582 56.6417 12.2457C56.6342 12.1977 56.6215 12.1758 56.6165 12.1682C56.6113 12.1603 56.6048 12.1537 56.5937 12.1468C56.5667 12.1301 56.5054 12.1106 56.422 12.1227C56.3383 12.1348 56.2905 12.17 56.2751 12.1876C56.2693 12.1942 56.2671 12.1988 56.2655 12.2044C56.2641 12.2093 56.2594 12.2282 56.264 12.2669Z" fill="black" stroke="var(--spot-icon-lineart)" stroke-width="1.5" stroke-linecap="round" stroke-linejoin="round"/>
<path d="M6.93209 26.7869C14.4646 25.0242 53.2911 16.7567 60.8236 14.994" stroke="var(--spot-icon-lineart)" stroke-width="1.5" stroke-miterlimit="10" stroke-linecap="round" stroke-linejoin="round"/>
<path d="M8.64022 60.96L1.44022 63.84" stroke="var(--spot-icon-lineart)" stroke-width="1.5" stroke-linecap="round" stroke-linejoin="round"/>
<path d="M8.16024 52.32L3.84024 55.2" stroke="var(--spot-icon-lineart)" stroke-width="1.5" stroke-linecap="round" stroke-linejoin="round"/>
</svg>
