<svg width="80" height="80" viewBox="0 0 80 80" fill="none" xmlns="http://www.w3.org/2000/svg">
<path d="M79.5349 62.8251C79.6279 60.2508 79.907 56.8185 80 54.2442L73.4884 55.1023C73.2093 53.9868 72.7442 52.8713 72.093 51.9274L78.6977 48.066C76.5581 45.7492 74.3256 43.6898 72.2791 41.3729L68 47.8944C67.4419 47.5512 66.1395 47.3795 65.4884 47.1221L66.2326 40.1716C61.9535 40.1716 59.0698 40 54.6977 40L55.2558 47.0363C54.6977 47.2937 54.2326 47.4653 53.6744 47.8086C53.6744 47.8086 53.5814 47.8086 52.6512 48.4092L48.5581 41.6304C45.4884 44.1188 43.2558 46.8647 40.186 49.3531L48.186 52.1848C47.814 53.1287 47.814 54.2442 48.093 55.1881L40 55.5314C40.4651 58.1056 40.4651 60.4224 40.9302 62.9967L48.8372 62.0528C49.2093 62.5677 49.4884 64.198 49.9535 64.6271L43.2558 68.6601C45.3953 70.7195 47.3488 72.5214 50.3256 73.3795L54.0465 67.1155C55.6279 67.8878 56.5581 68.5743 58.3256 68.8317L56.186 74.6667C59.4419 74.6667 62.6977 74.6667 65.8605 74.6667L64.2791 68.231C65.6744 67.8878 66.8837 67.7162 68 66.9439L72.5581 72.6931C73.7674 70.8053 76.093 69.0033 77.7674 67.1155L71.4419 64.0264C72 63.4257 72.186 62.5677 72.5581 61.8812L79.5349 62.8251ZM64.2791 61.7096C62.8837 62.6535 61.1163 62.9109 59.5349 62.7393C57.7674 62.4818 56 61.6238 54.9767 60.3366C53.8605 58.9637 53.4884 57.1617 54.1395 55.6172C54.6977 54.0726 57.1163 52.7855 57.1163 52.7855C58.8837 51.7558 61.2093 51.67 63.0698 52.4422C64.9302 53.2145 66.3256 54.9307 66.6046 56.8185C66.8837 58.6205 65.9535 60.5941 64.2791 61.7096Z" fill="var(--o-ui-purple-4)"/>
<path fill-rule="evenodd" clip-rule="evenodd" d="M65.7418 19.335C65.7514 19.7952 65.3861 20.1759 64.926 20.1855C60.6339 20.275 47.2625 20.3642 33.9012 20.4535L33.8844 20.4536C20.5075 20.5429 7.14475 20.6322 2.86633 20.7213C2.40619 20.7309 2.0254 20.3656 2.01582 19.9055C2.00623 19.4454 2.37147 19.0646 2.83161 19.055C7.12364 18.9656 20.495 18.8763 33.8562 18.7871L33.8732 18.787C47.25 18.6976 60.6128 18.6084 64.8913 18.5192C65.3514 18.5096 65.7322 18.8749 65.7418 19.335Z" fill="var(--o-ui-icon-alias-primary)"/>
<path fill-rule="evenodd" clip-rule="evenodd" d="M62.4021 8.42907L62.4082 8.42902C64.2971 8.42905 65.8311 9.96297 65.8311 11.8519V11.8546C65.8311 17.1202 65.8311 22.3917 65.7418 28.6453V30.6478C65.7418 31.1081 65.3687 31.4812 64.9084 31.4812C64.4482 31.4812 64.0751 31.1081 64.0751 30.6478V28.6274C64.1643 22.3834 64.1644 17.1205 64.1644 11.8519C64.1644 10.8844 63.3782 10.0972 62.411 10.0957C50.2615 10.185 17.4931 10.2743 5.25974 10.2743C4.27942 10.2743 3.44458 11.1505 3.50191 12.0678C3.50257 12.0784 3.50303 12.0891 3.50329 12.0997C3.68163 19.5009 4.21882 46.5933 3.50228 59.6701L3.50209 59.6734C3.44047 60.721 4.22944 61.5593 5.25974 61.5593C6.24588 61.5593 13.4707 61.5822 21.547 61.6078C25.9168 61.6217 30.5358 61.6363 34.5509 61.6486C35.0111 61.65 35.3831 62.0242 35.3816 62.4844C35.3802 62.9447 35.006 63.3166 34.5458 63.3152C30.5219 63.3029 25.8929 63.2883 21.5164 63.2744C13.4508 63.2488 6.2427 63.2259 5.25974 63.2259C3.25463 63.2259 1.72226 61.5649 1.8382 59.5773C2.54978 46.588 2.01664 19.5971 1.83746 12.1546C1.72705 10.2221 3.38816 8.60764 5.25974 8.60764C17.4919 8.60764 50.2608 8.51834 62.4021 8.42907Z" fill="var(--o-ui-icon-alias-primary)"/>
<path fill-rule="evenodd" clip-rule="evenodd" d="M13.6826 4.50054C14.1425 4.51697 14.5021 4.90314 14.4856 5.36309C14.3971 7.84353 14.3975 10.3134 14.5735 12.866C14.6052 13.3252 14.2586 13.7231 13.7995 13.7547C13.3403 13.7864 12.9424 13.4399 12.9108 12.9807C12.7296 10.3542 12.73 7.82365 12.82 5.3036C12.8365 4.84366 13.2226 4.48412 13.6826 4.50054Z" fill="var(--o-ui-icon-alias-primary)"/>
<path fill-rule="evenodd" clip-rule="evenodd" d="M54.1932 4.50001C54.6534 4.50001 55.0265 4.87311 55.0265 5.33334V13.102C55.0265 13.5622 54.6534 13.9353 54.1932 13.9353C53.7329 13.9353 53.3598 13.5622 53.3598 13.102V5.33334C53.3598 4.87311 53.7329 4.50001 54.1932 4.50001Z" fill="var(--o-ui-icon-alias-primary)"/>
<path fill-rule="evenodd" clip-rule="evenodd" d="M61.5168 52.0778C60.7232 51.972 59.8368 52.0722 58.6034 52.3189C56.4718 52.7452 55.6334 54.1334 55.1556 54.9297C54.8544 55.4313 54.708 56.4374 54.9763 57.555C55.2374 58.6426 55.8554 59.6757 56.8692 60.2839C58.0113 60.9692 59.1146 61.2899 60.1896 61.2899C61.2647 61.2899 62.3679 60.9692 63.51 60.2839C65.1589 59.2946 65.6046 57.3452 65.6046 56.4999C65.6046 55.8203 65.2541 54.1548 63.9386 53.1681C63.0268 52.4843 62.2833 52.18 61.5168 52.0778ZM61.7375 50.4225C62.846 50.5703 63.8524 51.016 64.9406 51.8321C66.8251 53.2455 67.2746 55.513 67.2746 56.4999C67.2746 57.6547 66.7203 60.3053 64.3692 61.7159C63.0113 62.5307 61.6146 62.9599 60.1896 62.9599C58.7647 62.9599 57.3679 62.5307 56.01 61.7159C54.5238 60.8242 53.6915 59.3573 53.3524 57.9449C53.0206 56.5627 53.1243 55.0687 53.7236 54.0705V54.0705L53.727 54.0649C54.2508 53.1918 55.4136 51.2538 58.2759 50.6814C59.5424 50.428 60.656 50.2783 61.7375 50.4225Z" fill="var(--o-ui-icon-alias-primary)"/>
</svg>
