<svg width="80" height="80" viewBox="0 0 80 80" fill="none" xmlns="http://www.w3.org/2000/svg">
    <path fill-rule="evenodd" clip-rule="evenodd" d="M64.1094 4.63877C64.7998 4.55198 65.4826 4.54996 66.0338 4.75302C66.0597 4.76258 66.0852 4.77357 66.1099 4.78595L66.2698 4.8659C66.3652 4.91357 66.4493 4.98104 66.5165 5.06378C66.8914 5.52517 67.1124 6.17704 67.2539 6.86497C67.3993 7.57259 67.4783 8.41199 67.5097 9.32489C67.5726 11.1524 67.4468 13.3556 67.2305 15.5541C66.7987 19.9418 65.9938 24.4283 65.5369 26.048L65.5358 26.0519C61.0837 41.5129 53.2906 51.9587 37.6686 63.1518L37.6588 63.1589C36.3626 64.0562 34.5833 64.0562 33.2871 63.1588L33.2753 63.1505L21.528 54.6796C20.2325 53.7787 19.6247 52.0853 20.1267 50.5628C22.9776 41.1291 26.183 33.8172 30.3783 27.7371C34.5789 21.6492 39.7494 16.8287 46.4883 12.3492C47.9012 11.3942 51.9006 9.21658 55.914 7.42059C57.9262 6.52013 59.9683 5.7035 61.7118 5.18174C62.5827 4.92111 63.3983 4.72817 64.1094 4.63877ZM56.5267 8.78975C52.5474 10.5705 48.634 12.7087 47.3262 13.5934L47.3212 13.5968C40.7094 17.9915 35.6868 22.6848 31.6129 28.5889C27.5346 34.4995 24.3847 41.6559 21.5597 51.0062C21.5577 51.013 21.5555 51.0197 21.5533 51.0264C21.263 51.8973 21.612 52.9134 22.388 53.4506L22.3998 53.4589L34.1463 61.9293C34.927 62.4662 36.0198 62.466 36.8003 61.9287C52.1953 50.8971 59.7517 40.7165 64.0939 25.6386C64.5166 24.1381 65.3101 19.7522 65.7377 15.4072C65.9511 13.2385 66.0702 11.1093 66.0106 9.37643C65.9808 8.50917 65.9068 7.7614 65.7846 7.167C65.6831 6.67342 65.5591 6.34075 65.4391 6.13665C65.2172 6.07749 64.8467 6.05789 64.2965 6.12705C63.6984 6.20224 62.9699 6.37096 62.1419 6.61877C60.4874 7.11389 58.512 7.90129 56.5267 8.78975Z" fill="var(--o-ui-purple-4)"/>
    <path fill-rule="evenodd" clip-rule="evenodd" d="M37.2318 62.5421C36.1925 63.2617 34.7534 63.2617 33.714 62.5421L21.9611 54.0673C20.9217 53.3477 20.442 51.9885 20.8418 50.7893C26.5183 32.0007 33.5541 21.8468 46.906 12.9722C49.6243 11.1333 62.7363 4.33745 65.7745 5.45677L65.9344 5.53673C68.0132 8.09517 65.6945 22.7263 64.8151 25.8444C60.4177 41.1151 52.7424 51.4289 37.2318 62.5421ZM46.906 31.2012C44.9072 29.2024 45.0671 25.5246 47.1458 23.6858C49.3045 21.8469 52.5825 22.2466 54.0216 23.5259C56.8199 26.0843 56.3402 28.9626 54.4214 31.0413C52.5025 33.12 48.9048 33.2 46.906 31.2012Z" fill="var(--o-ui-purple-4)"/>
    <path fill-rule="evenodd" clip-rule="evenodd" d="M50.5569 19.7382C51.9629 19.7825 53.3226 20.267 54.1997 21.0466L54.2075 21.0536C55.7322 22.4476 56.4321 23.9997 56.4202 25.5505C56.4084 27.0831 55.7024 28.4936 54.6522 29.6313C52.446 32.0214 48.357 32.1144 46.0554 29.8128C44.8849 28.6424 44.3709 27.009 44.427 25.438C44.4831 23.8684 45.1109 22.2829 46.3279 21.2059C47.5773 20.0957 49.1352 19.6934 50.5569 19.7382ZM50.5097 21.2375C49.3932 21.2023 48.233 21.5194 47.3238 22.3276L47.3225 22.3288C46.4612 23.0907 45.9699 24.2632 45.9261 25.4916C45.8822 26.7189 46.2877 27.9238 47.116 28.7522C48.812 30.4481 51.9186 30.3813 53.55 28.6139C54.4187 27.6728 54.912 26.6048 54.9202 25.539C54.9283 24.4925 54.4699 23.3276 53.1994 22.1644C52.6366 21.6663 51.6396 21.273 50.5097 21.2375Z" fill="var(--o-ui-icon-alias-primary)"/>
    <path fill-rule="evenodd" clip-rule="evenodd" d="M31.1047 32.2856C31.124 32.6993 30.8041 33.0504 30.3904 33.0696C26.91 33.2315 23.4805 33.4813 20.9786 35.3935C19.3685 36.6383 18.2396 38.4958 17.5524 40.4809C16.9552 42.2062 16.6403 44.0615 16.4115 45.9746C16.5388 45.9634 16.6777 45.9507 16.827 45.9364C17.6357 45.8587 18.7437 45.7331 19.9434 45.5413C21.1451 45.3493 22.4263 45.0928 23.5852 44.756C24.7569 44.4155 25.746 44.0089 26.4032 43.5419C26.7409 43.3019 27.2091 43.3812 27.449 43.7188C27.6889 44.0565 27.6097 44.5247 27.272 44.7646C26.4102 45.377 25.2307 45.8398 24.0038 46.1964C22.7641 46.5567 21.4169 46.8249 20.1801 47.0225C18.9413 47.2206 17.8007 47.3498 16.9704 47.4295C16.5548 47.4694 16.216 47.497 15.9804 47.5147C15.8625 47.5235 15.7704 47.5299 15.7072 47.5341L15.6347 47.5388L15.6155 47.5399L15.6088 47.5403C15.6087 47.5403 15.6081 47.5404 15.5645 46.7916L15.6088 47.5403C15.3888 47.5531 15.1735 47.4685 15.0214 47.3089C14.8694 47.1493 14.7953 46.9309 14.8188 46.7117C15.0596 44.464 15.386 42.154 16.135 39.9903C16.8867 37.8186 18.1559 35.6791 20.0629 34.2055L20.0659 34.2031C23.0006 31.959 26.9259 31.7291 30.3207 31.5712C30.7344 31.552 31.0855 31.8718 31.1047 32.2856Z" fill="var(--o-ui-icon-alias-primary)"/>
    <path fill-rule="evenodd" clip-rule="evenodd" d="M50.3726 46.1517C50.7702 46.0353 51.1867 46.2633 51.3031 46.6608C52.2517 49.9021 53.3004 53.7305 52.0926 57.2677L52.0915 57.2707C51.3093 59.5304 49.6759 61.3999 47.8438 62.8157C46.15 64.1245 44.2463 65.0734 42.3417 66.0227C42.1892 66.0987 42.0366 66.1748 41.8842 66.251C41.6832 66.3515 41.4478 66.3566 41.2427 66.2648C41.0375 66.1731 40.8843 65.9943 40.8252 65.7775L41.5488 65.5802C40.8252 65.7775 40.8252 65.7776 40.8252 65.7775L40.8233 65.7703L40.8183 65.7518L40.7997 65.6818C40.7836 65.6209 40.7604 65.532 40.7314 65.4179C40.6734 65.1899 40.5921 64.8614 40.4983 64.4564C40.3109 63.6472 40.0725 62.529 39.8693 61.2947C39.6665 60.0623 39.4966 58.7018 39.4501 57.4109C39.404 56.1328 39.4761 54.864 39.7933 53.8443C39.9163 53.4488 40.3367 53.228 40.7322 53.351C41.1277 53.474 41.3486 53.8944 41.2256 54.2899C40.9831 55.0692 40.9052 56.1389 40.9491 57.3569C40.9925 58.562 41.1525 59.8548 41.3494 61.051C41.546 62.2452 41.7773 63.3306 41.9596 64.118C41.9907 64.2519 42.0202 64.3772 42.048 64.4927C43.8259 63.6039 45.4644 62.7587 46.9266 61.6287C48.612 60.3264 50.0164 58.6786 50.6736 56.7814C51.7036 53.763 50.8335 50.3964 49.8635 47.0822C49.7471 46.6846 49.9751 46.2681 50.3726 46.1517Z" fill="var(--o-ui-icon-alias-primary)"/>
    <path fill-rule="evenodd" clip-rule="evenodd" d="M21.5693 48.7852C21.793 48.4366 22.257 48.3354 22.6056 48.5591C28.0005 52.0215 33.0748 55.968 37.7474 60.399C38.048 60.684 38.0606 61.1587 37.7756 61.4593C37.4905 61.7598 37.0158 61.7724 36.7153 61.4874C32.1135 57.1237 27.114 53.2349 21.7954 49.8215C21.4468 49.5978 21.3456 49.1338 21.5693 48.7852Z" fill="var(--o-ui-icon-alias-primary)"/>
    <path fill-rule="evenodd" clip-rule="evenodd" d="M25.1745 59.277C25.2557 59.6832 24.9923 60.0783 24.5862 60.1596C22.863 60.5042 21.2232 61.0632 19.6661 61.8064C19.7035 61.8216 19.7407 61.8371 19.7775 61.8529C19.9971 61.947 20.1587 62.1401 20.2127 62.3728C20.2667 62.6056 20.2065 62.8501 20.0507 63.0313C16.9425 66.6455 15.4733 71.6312 16.1574 76.3581C19.8104 75.0663 22.8279 72.1825 24.39 68.5613C24.5309 68.2347 24.8819 68.0519 25.2303 68.1239C25.4856 68.1766 25.688 68.3553 25.778 68.587C26.586 65.9938 26.7761 63.2296 26.2608 60.5239C26.1833 60.117 26.4503 59.7243 26.8572 59.6468C27.2641 59.5693 27.6568 59.8363 27.7343 60.2432C28.4024 63.7509 27.9837 67.3362 26.6521 70.5822C26.5758 70.7681 26.4281 70.9156 26.2421 70.9917C26.0562 71.0678 25.8474 71.066 25.6627 70.9869C25.4319 70.8879 25.2315 70.7511 25.0613 70.589C23.0668 74.1731 19.7221 76.936 15.7687 78.0549C15.5675 78.1118 15.3516 78.0822 15.1732 77.9731C14.9948 77.864 14.8701 77.6854 14.829 77.4803C13.8155 72.4124 15.1296 66.9936 18.2269 62.9037C18.1023 62.8678 17.9756 62.8324 17.8473 62.7966C17.7383 62.7662 17.6282 62.7354 17.5171 62.7037C17.2276 62.621 17.0156 62.3731 16.9788 62.0742C16.942 61.7753 17.0875 61.4834 17.3484 61.3329C19.4923 60.0961 21.8073 59.1856 24.292 58.6887C24.6982 58.6075 25.0933 58.8709 25.1745 59.277Z" fill="var(--o-ui-icon-alias-primary)"/>
</svg>
